<svg width="198" height="132" viewBox="0 0 198 132" fill="none" xmlns="http://www.w3.org/2000/svg">
<g clip-path="url(#clip0_2560_1527)">
<path d="M97.546 23.0001C98.2208 23.6742 98.3077 24.521 98.2966 25.4133C98.2828 26.5174 98.3153 27.622 98.3171 28.7264C98.3179 29.2092 97.6061 29.9255 97.1154 29.9373C96.5795 29.9502 96.0403 29.9068 95.5075 29.95C94.7796 30.0089 94.3394 29.5656 93.8979 29.1178C93.8056 29.0243 93.7759 28.8534 93.7526 28.7123C93.7069 28.4358 93.6858 28.1553 93.651 27.8448C92.9941 27.8766 92.386 27.9057 91.7779 27.9359C91.74 27.9377 91.6741 27.9377 91.6686 27.9542C91.4229 28.6899 90.3716 28.8602 90.3727 29.7552C90.3732 30.2104 90.4506 30.6649 90.4692 31.1208C90.4868 31.5542 90.473 31.9889 90.473 32.5745C90.7935 32.6707 91.2783 32.8124 91.7603 32.9628C91.938 33.0181 92.1887 33.0434 92.2693 33.169C92.5887 33.6669 93.0313 33.761 93.549 33.6297C93.7831 33.5702 93.9964 33.43 94.1927 33.2564C95.2128 33.1973 96.1535 33.5375 96.9599 34.1889C97.2524 34.4251 97.4436 34.7832 97.6936 35.075C97.749 35.1397 97.8579 35.1591 98.0214 35.2374C98.1524 34.9561 98.2787 34.6851 98.4262 34.3686C97.8179 34.3809 97.3803 33.6891 97.6164 33.161C98.2913 31.6509 99.0095 30.1601 99.7189 28.6442C99.581 28.2274 99.4083 27.7531 99.2678 27.2694C99.1022 26.6992 99.3776 26.2822 99.8555 26.0408C100.699 25.6144 101.573 25.2455 102.434 24.8525C102.461 24.9048 102.488 24.9573 102.515 25.0097C102.12 25.3118 101.7 25.5859 101.336 25.9217C100.564 26.635 100.57 26.9824 101.214 27.6867C102.021 27.6048 102.762 27.5753 103.483 27.4398C103.938 27.3542 104.363 27.1102 104.822 26.929C104.823 26.9298 104.869 26.94 104.883 26.9667C105.408 27.9482 105.939 28.9263 106.444 29.9176C106.562 30.1482 106.627 30.4239 106.949 30.3007C107.278 30.1747 107.773 30.0374 107.849 29.7964C107.994 29.3407 107.891 28.8073 107.891 28.2509C108.472 28.9118 108.777 29.6894 108.639 30.4677C108.526 31.1054 107.9 31.5701 107.245 31.6839C106.606 31.795 106.415 32.1882 106.238 32.682C105.911 33.5951 105.638 34.535 105.221 35.4064C104.888 36.1032 104.374 36.7149 103.941 37.3644C103.879 37.3295 103.818 37.2944 103.757 37.2594C103.782 37.1044 103.807 36.9493 103.848 36.6946C103.484 36.9785 103.181 37.2147 102.838 37.4824C103.175 37.7906 103.452 37.9844 103.919 37.8906C104.169 37.8403 104.508 37.9668 104.737 38.1174C105.454 38.5872 106.138 39.1064 106.834 39.6064C106.784 39.628 106.733 39.6495 106.682 39.6711C106.761 39.9248 106.784 40.2163 106.929 40.4253C107.425 41.1455 107.977 41.8274 108.478 42.5447C108.634 42.7679 108.747 43.0491 108.788 43.3175C108.908 44.1119 109.145 44.8282 109.814 45.3468C110.183 45.6332 110.3 46.0129 110.309 46.4948C110.325 47.3203 110.335 48.1266 109.935 48.8803C109.908 48.9304 109.861 48.9954 109.875 49.0371C110.258 50.2195 109.506 51.3417 109.702 52.5268C109.809 53.1701 109.055 53.9413 108.401 53.9113C108.213 53.9026 108.038 53.5897 107.794 53.3571C107.715 53.4132 107.52 53.5571 107.318 53.6925C107.052 53.8716 106.766 54.1406 106.461 53.8111C106.163 53.4906 106.183 53.1293 106.478 52.784C106.638 52.5965 106.779 52.3894 106.903 52.1768C106.986 52.0348 107.026 51.8676 107.136 51.5786C106.711 52.0618 106.378 52.4292 106.059 52.8088C105.744 53.183 105.243 53.3236 104.96 53.0475C104.652 52.7464 104.744 52.4047 104.977 52.0757C105.185 51.7819 105.366 51.4688 105.58 51.1306C105.445 51.0113 105.322 50.9038 105.164 50.7653C105.025 50.9369 104.921 51.0956 104.786 51.2212C104.655 51.3423 104.496 51.5079 104.344 51.5128C104.115 51.5204 103.734 51.4627 103.683 51.3304C103.592 51.0978 103.651 50.7704 103.74 50.515C103.838 50.2357 104.042 49.9931 104.179 49.767C102.417 48.2496 100.687 46.7608 98.9513 45.2666C99.027 45.7359 99.0349 46.2592 99.2045 46.7239C99.4622 47.43 99.3231 48.0178 98.9722 48.6447C98.3213 49.8076 97.7492 51.0144 97.0942 52.175C96.8288 52.6451 96.7267 53.0798 96.9575 53.564C97.1205 53.9058 97.0381 54.1589 96.7628 54.3995C96.5918 54.549 96.4748 54.759 96.3058 54.9112C95.8496 55.3216 95.5588 55.7288 95.9643 56.3676C96.0718 56.5369 95.9613 56.8821 95.8814 57.1239C95.3143 58.84 94.7285 60.55 94.1504 62.2625C94.0906 62.4394 94.0426 62.6201 93.9587 62.9012C94.4546 62.6024 94.8669 62.3541 95.4198 62.021C95.1475 62.5775 94.9379 63.0059 94.6947 63.5031C95.5996 63.5178 95.8416 62.5864 96.5378 62.4398C96.4869 62.8813 96.4313 63.3633 96.3678 63.9135C97.1065 63.895 97.3431 64.3084 97.476 64.8698C97.6604 65.6499 98.1049 66.1755 98.9117 66.4724C99.9045 66.8378 100.844 67.3458 101.86 67.8168H100.618C100.976 68.191 101.246 68.4741 101.586 68.8291C101.273 69.3517 100.937 69.914 100.539 70.5791C100.897 70.688 101.211 70.8615 101.524 70.8612C102.052 70.8606 102.455 71.0594 102.862 71.3607C103.675 71.9624 104.514 72.5277 105.351 73.1143C105.182 73.4492 105.023 73.7655 104.809 74.1896C105.058 74.0908 105.199 74.0351 105.41 73.9516C105.564 74.9887 105.479 75.98 104.918 76.7814C103.004 79.5145 100.562 81.7836 98.1192 84.0793C98.8349 82.733 99.5505 81.3867 100.345 79.8919C99.359 80.6136 98.49 81.2494 97.6209 81.8854C98.1443 80.3958 99.4562 79.3036 99.6203 77.59C98.8295 77.9795 98.0934 78.3419 97.3572 78.7044C97.3247 78.6744 97.2922 78.6442 97.2596 78.6141C97.5134 77.9708 97.7673 77.3275 98.0213 76.6842C97.9985 76.6613 97.9757 76.6384 97.9529 76.6154C97.3861 77.0634 96.8193 77.5113 96.2524 77.9593C96.2211 77.9423 96.1897 77.9253 96.1583 77.9082C96.5925 77.003 97.0268 76.0977 97.5367 75.0349C97.0853 75.1763 96.7901 75.2688 96.4945 75.3614C96.4647 75.3397 96.4215 75.3244 96.4076 75.2952C95.9747 74.3852 95.5986 74.236 94.5888 74.6291C93.2723 75.1417 91.9643 75.6757 90.4698 76.2735C90.9428 75.2636 91.3588 74.3753 91.7908 73.4529C90.6591 74.2168 89.5546 74.9623 88.3554 75.7717C88.407 75.5279 88.4304 75.4047 88.4593 75.2829C88.6367 74.5378 88.8152 73.793 88.9979 73.0293C88.0808 73.6731 87.1679 74.3139 86.255 74.9548C86.2397 74.928 86.2243 74.9013 86.209 74.8747C86.6785 74.1789 87.1479 73.4832 87.6671 72.7138C86.0003 73.8796 84.4149 74.9883 82.8294 76.0971C82.7902 76.0578 82.7512 76.0184 82.712 75.9791L83.7606 74.7366C83.7379 74.7058 83.7153 74.6751 83.6927 74.6443C83.1304 74.9639 82.5681 75.2835 82.0058 75.6031C81.981 75.5711 81.9562 75.5392 81.9314 75.5072C83.4864 73.7583 85.0412 72.0095 86.6513 70.1987C86.0519 70.4731 85.5273 70.7134 85.0026 70.9536C84.9657 70.9171 84.9288 70.8806 84.8919 70.844C85.2749 70.1694 85.6577 69.4947 86.0407 68.8199C86.0142 68.7983 85.9877 68.7768 85.9612 68.7552C85.1604 69.5246 84.3335 70.2695 83.5675 71.072C83.0237 71.6416 82.3468 71.881 81.5627 72.1315C81.6016 71.8765 81.6304 71.6883 81.663 71.4751C79.57 73.0705 77.5053 74.6444 75.4406 76.2183C75.9499 75.3878 76.8419 74.8169 77.095 73.7696C76.7846 73.745 76.5073 73.7231 76.1684 73.6963C76.2092 73.4486 76.2445 73.2354 76.3067 72.8572C75.8582 72.9721 75.4397 72.9997 75.1025 73.1786C72.858 74.3693 70.6311 75.593 68.397 76.8033C68.2182 76.9002 68.0283 76.9768 67.7354 77.1133C69.8992 74.9093 71.9754 72.7946 73.9408 70.7927C70.9582 72.7443 67.8346 74.7881 64.7112 76.8318C64.6551 76.7627 64.5991 76.6935 64.543 76.6245C64.6767 76.5139 64.8112 76.4042 64.9443 76.2927C66.1159 75.3109 67.3131 74.3576 68.4529 73.3406C70.4468 71.5615 72.3796 69.7143 74.3888 67.9528C75.4731 67.0023 76.4775 66.0025 77.2885 64.8105C79.0824 62.1737 81.523 60.255 84.2171 58.6049C84.6681 58.3287 85.0063 57.8639 85.3799 57.4706C86.1774 56.6313 86.9197 55.7351 87.7632 54.945C90.2865 52.5816 92.86 50.2713 95.3882 47.9128C96.5568 46.8227 97.6655 45.6693 98.7495 44.4871C96.8653 46.1419 94.9753 47.7902 93.0988 49.4536C91.2152 51.1231 89.3452 52.8078 87.4401 54.512C87.4496 54.3901 87.4296 54.2465 87.4747 54.1271C87.7971 53.2747 88.046 52.3776 88.4959 51.5959C88.7785 51.1049 89.369 50.7889 89.8543 50.3657C89.8373 50.1423 89.8118 49.8061 89.7847 49.4491C89.4837 49.6886 89.1788 49.9311 88.8738 50.1736C88.827 50.1429 88.7802 50.1121 88.7334 50.0814C88.8715 49.7018 89.0095 49.3222 89.1672 48.8886C89.0036 48.9802 88.862 49.0594 88.6516 49.1772C89.0081 47.8481 89.64 46.7393 90.542 45.6167C90.2664 45.6846 90.126 45.7193 89.965 45.7589C89.9536 45.7007 89.9244 45.646 89.9378 45.6046C90.0657 45.2062 90.2025 44.8107 90.3327 44.4131C90.368 44.3055 90.4488 44.1605 90.4083 44.0889C90.0756 43.5008 90.543 43.1501 90.7758 42.7182C90.9646 42.368 91.094 41.9862 91.3066 41.484C90.964 41.5717 90.8108 41.611 90.6577 41.6502C90.6161 41.6131 90.5745 41.5759 90.5329 41.5389C91.1623 40.6814 91.7918 39.8238 92.4499 38.9274C92.4122 38.9007 92.2913 38.7709 92.2493 38.7925C91.8194 39.0142 91.5526 38.7019 91.2472 38.5155C90.1618 37.8533 88.9427 37.4138 88.058 36.416C87.7403 36.0577 87.178 35.8941 86.7032 35.6999C86.3365 35.5499 86.1352 35.3532 86.1603 34.9443C86.1991 34.3112 86.1947 33.6953 85.5966 33.2546C85.5191 33.1976 85.5481 32.9082 85.6132 32.7649C85.8495 32.2457 86.1455 31.753 86.3762 31.2316C86.8273 30.2123 86.6714 29.2318 86.0932 28.3087C86.0149 28.1836 85.8342 28.0605 85.6917 28.0489C85.3515 28.0213 85.0005 28.0273 84.6633 28.0801C83.9887 28.1859 83.7897 28.0479 83.7552 27.3775C83.7532 27.3394 83.7547 27.3012 83.7541 27.2631C83.7386 26.1568 83.8231 26.0641 84.9042 26.0123C85.172 25.9995 85.4405 25.999 85.7079 25.9814C85.8195 25.9741 86.0093 25.9636 86.0274 25.9094C86.2236 25.3226 86.8313 25.3335 87.2387 25.0603C87.3304 24.9988 87.4418 24.9404 87.5485 24.9311C88.0935 24.8839 88.64 24.8534 89.186 24.8169C89.2608 24.8119 89.3398 24.8192 89.4098 24.7979C90.3676 24.507 90.3929 24.4936 90.8123 25.3456C91.0341 25.7961 91.4501 25.8758 91.8255 25.931C92.3661 26.0106 92.9274 25.9514 93.554 25.9514C93.4758 24.8372 93.3265 23.751 94.3274 23H97.5454L97.546 23.0001ZM105.777 48.402C105.656 48.2095 105.571 48.0873 105.499 47.9574C105.244 47.4927 104.639 47.1237 105.092 46.4578C105.131 46.4003 105.065 46.2117 104.992 46.1493C104.568 45.7881 104.127 45.4465 103.779 45.1675C103.641 45.5203 103.439 46.0352 103.193 46.6646C103.079 46.4238 103.03 46.3212 102.956 46.1657C102.672 46.7085 102.42 47.1903 102.152 47.7012C102.771 48.2179 103.382 48.7271 103.907 49.1653C104.564 48.8973 105.154 48.6562 105.777 48.4022V48.402ZM100.546 31.9692C100.552 32.824 100.889 33.2331 101.748 33.4318C101.909 33.4691 102.193 33.4756 102.246 33.3901C102.396 33.1458 102.611 32.7779 102.523 32.5822C102.269 32.0174 101.924 31.4841 101.157 31.4571C100.716 31.4416 100.491 31.5493 100.546 31.9692ZM104.368 32.9326C104.09 32.9578 103.854 32.9089 103.76 33.0017C103.534 33.226 103.358 33.5074 103.199 33.7869C103.162 33.8536 103.244 34.0758 103.316 34.1017C103.683 34.2334 104.102 34.4703 104.433 34.3888C104.779 34.3033 105.073 33.9195 105.317 33.6091C105.35 33.5666 104.983 33.1668 104.756 32.9885C104.645 32.9002 104.431 32.9394 104.368 32.9326Z" fill="black"/>
<path d="M51 84.1584C52.6172 85.7521 54.2385 87.3419 55.8491 88.9422C56.3334 89.4234 56.7883 89.9338 57.2566 90.4307C57.3027 90.4036 57.3487 90.3766 57.3948 90.3495V84.0815C57.7368 84.419 57.9568 84.6347 58.1755 84.8518C58.8668 85.5381 59.5704 86.2129 60.2394 86.9202C60.4024 87.0925 60.539 87.3715 60.5396 87.6018C60.5558 93.5644 60.5542 99.5272 60.5442 105.49C60.5438 105.678 60.4737 105.915 60.3485 106.046C59.4399 106.999 58.5088 107.931 57.5848 108.87C57.5307 108.855 57.4767 108.839 57.4227 108.824C57.4227 108.632 57.4227 108.441 57.4227 108.25C57.4227 103.983 57.4302 99.7157 57.4066 95.4485C57.405 95.1513 57.2427 94.7924 57.0374 94.5698C56.1472 93.6057 55.2133 92.6816 54.2953 91.7429C54.24 91.7688 54.1847 91.7946 54.1293 91.8203C54.1293 92.0168 54.1293 92.2133 54.1293 92.4097C54.1293 96.6961 54.1229 100.982 54.139 105.269C54.1406 105.707 54.0091 106.014 53.6941 106.311C52.9304 107.032 52.1956 107.784 51.4554 108.529C51.3264 108.659 51.2276 108.819 51.1148 108.965C51.0766 108.793 51.0049 108.622 51.0047 108.45C50.9993 100.353 51 92.2556 51 84.1584Z" fill="black"/>
<path d="M88.4672 108.965C88.4716 107.956 88.5491 106.941 88.4598 105.941C88.3684 104.917 88.7089 104.196 89.4766 103.527C90.4949 102.639 91.4149 101.639 92.412 100.653C91.2373 99.4846 90.1014 98.3309 88.9347 97.2089C88.6055 96.8922 88.4684 96.5752 88.4704 96.1176C88.4877 92.3482 88.4802 88.5786 88.4802 84.8091V84.2427C91.6384 87.4117 94.7544 90.5383 97.866 93.6606C97.2227 94.2824 96.4981 94.9825 95.7205 95.734C94.4514 94.4203 93.1562 93.0797 91.8611 91.739C91.8011 91.7688 91.741 91.7987 91.681 91.8285C91.6635 91.9806 91.6319 92.1327 91.631 92.2848C91.626 93.1606 91.651 94.0372 91.6187 94.9117C91.6032 95.3332 91.7529 95.6175 92.0457 95.9054C93.6377 97.4702 95.2117 99.0531 96.8245 100.662C96.6813 100.816 96.5491 100.967 96.4072 101.108C93.9167 103.585 91.4243 106.06 88.9352 108.538C88.8049 108.668 88.6991 108.822 88.5819 108.965H88.467H88.4672Z" fill="black"/>
<path d="M125.934 108.965C125.938 103.883 125.943 98.8008 125.946 93.7188C125.948 90.7682 125.947 87.8176 125.947 84.867V84.083C126.775 84.9129 127.442 85.6694 128.202 86.3164C128.903 86.9123 129.129 87.5743 129.117 88.4881C129.066 92.5231 129.095 96.5592 129.095 100.595V101.341C130.512 99.9234 131.839 98.5948 133.155 97.2772C133.96 98.076 134.689 98.7998 135.501 99.6055C135.287 99.7808 135.051 99.9443 134.851 100.143C132.004 102.965 129.162 105.791 126.321 108.619C126.218 108.722 126.139 108.849 126.049 108.965L125.934 108.965Z" fill="black"/>
<path d="M138.461 108.965C138.467 108.052 138.479 107.139 138.479 106.227C138.481 99.1079 138.48 91.9891 138.48 84.8704V84.2656C138.525 84.2417 138.571 84.2177 138.616 84.1938C139.251 84.8392 139.839 85.5423 140.535 86.1149C141.403 86.8294 141.685 87.6476 141.664 88.7746C141.589 92.7133 141.635 96.6542 141.635 100.594C141.635 100.812 141.635 101.03 141.635 101.349C143.052 99.9297 144.378 98.6017 145.821 97.1561C146.594 97.9791 147.297 98.7281 148 99.4769V99.5912C147.911 99.6582 147.812 99.7158 147.734 99.7937C144.731 102.775 141.729 105.759 138.73 108.744C138.667 108.806 138.627 108.891 138.576 108.965H138.461L138.461 108.965Z" fill="black"/>
<path d="M72.8769 108.913C72.6612 108.649 72.467 108.363 72.2267 108.124C69.4277 105.332 66.6174 102.552 63.8273 99.7517C63.6372 99.5609 63.4853 99.2344 63.4841 98.9702C63.4637 94.228 63.4688 89.4856 63.4708 84.7432C63.4708 84.5968 63.4942 84.4502 63.5134 84.2256C63.6921 84.3843 63.8204 84.4874 63.9365 84.6026C66.8512 87.4944 69.7611 90.3909 72.6837 93.2747C72.9635 93.5507 73.0801 93.8243 73.079 94.2193C73.0653 98.8855 73.0702 103.552 73.0702 108.218V108.78C73.0058 108.824 72.9414 108.869 72.8769 108.913ZM66.6224 91.6659C66.6224 93.4089 66.6991 94.9892 66.5967 96.5579C66.5223 97.6992 66.8245 98.5391 67.7213 99.2677C68.4791 99.8834 69.1192 100.642 69.7977 101.324C69.8869 101.265 69.9151 101.255 69.9152 101.245C69.9235 99.2312 69.9329 97.217 69.9288 95.2029C69.9285 95.0679 69.8592 94.8995 69.7641 94.8032C68.7627 93.7897 67.7496 92.7879 66.6224 91.6659Z" fill="black"/>
<path d="M113.504 84.2261C116.652 87.3786 119.752 90.4825 122.839 93.5738C122.164 94.2151 121.427 94.9166 120.675 95.6308C119.439 94.3928 118.111 93.0625 116.783 91.7322C116.729 91.7574 116.675 91.7826 116.621 91.8078C116.621 92.6304 116.607 93.4534 116.635 94.2751C116.64 94.4116 116.811 94.5557 116.929 94.6732C117.549 95.2928 118.177 95.9049 118.818 96.5353C118.159 97.1915 117.527 97.7998 116.925 98.4364C116.771 98.5985 116.637 98.8462 116.626 99.0614C116.589 99.7826 116.612 100.507 116.612 101.222C117.951 99.8847 119.285 98.5523 120.585 97.2532C121.455 98.0977 122.19 98.8106 122.856 99.4578C119.751 102.572 116.643 105.69 113.504 108.838V84.2262V84.2261Z" fill="black"/>
<path d="M76.0332 108.94V84.2783C79.1559 87.4041 82.265 90.5165 85.3989 93.6535C84.1078 94.9226 82.7382 96.2689 81.3565 97.6271C82.4021 98.6672 83.3841 99.644 84.3207 100.576C83.5633 101.354 82.8604 102.076 82.1035 102.854C81.1657 101.894 80.2299 100.936 79.2942 99.978C79.2442 100.006 79.1942 100.033 79.1442 100.061C79.1442 100.813 79.1442 101.564 79.1442 102.316C79.1442 103.363 79.1508 104.41 79.1378 105.457C79.1356 105.633 79.1043 105.862 78.9931 105.976C78.0502 106.945 77.0856 107.892 76.0333 108.94L76.0332 108.94ZM80.8703 93.641C80.2996 93.0745 79.7056 92.4847 79.1855 91.9684V95.3051C79.7899 94.7082 80.3789 94.1264 80.8703 93.641Z" fill="black"/>
<path d="M110.314 93.6693C109.696 94.2665 108.971 94.967 108.235 95.6774C106.959 94.3958 105.63 93.0615 104.301 91.7273C104.245 91.7543 104.189 91.7813 104.133 91.8083C104.133 92.6439 104.121 93.48 104.146 94.315C104.149 94.4336 104.319 94.5562 104.426 94.6616C105.052 95.2751 105.683 95.884 106.363 96.5439C105.71 97.1784 105.121 97.7738 104.504 98.3392C104.214 98.6049 104.097 98.8846 104.101 99.2819C104.121 101.32 104.122 103.359 104.095 105.397C104.092 105.663 103.95 105.984 103.767 106.181C102.912 107.1 102.019 107.984 101.023 109V84.3706C104.085 87.4349 107.202 90.554 110.314 93.6693Z" fill="black"/>
<path d="M116.377 61.0822C116.92 61.5969 117.462 62.1116 118.067 62.6851C116.208 62.4212 114.978 61.1507 113.529 60.2973C113.487 60.3381 113.444 60.3789 113.402 60.4197C113.939 60.959 114.476 61.4982 115.096 62.1204C113.594 61.1636 112.191 60.2693 110.83 59.4018C111.394 59.233 111.815 59.6848 112.263 60.0009C112.545 60.2001 112.755 60.2652 113.071 60.07C113.205 59.9874 113.487 60.0106 113.631 60.0992C114.166 60.4284 114.671 60.8047 115.228 61.191C115.309 60.9138 115.377 60.6811 115.445 60.4479C115.404 60.3966 115.378 60.3339 115.332 60.312C114.405 59.872 113.722 59.1978 113.267 58.2771C113.154 58.0484 112.935 57.8635 112.741 57.6836C111.579 56.606 110.409 55.5368 109.245 54.4615C109.096 54.3246 108.965 54.1691 108.904 53.9287C109.031 54.0173 109.168 54.0953 109.284 54.1962C110.726 55.4483 112.168 56.6995 113.6 57.9622C113.84 58.1745 114.099 58.4085 114.236 58.6874C114.574 59.3746 115.145 59.7753 115.771 60.1612C116.616 60.6816 117.438 61.2413 118.245 61.8191C120.053 63.1145 121.849 64.4284 123.642 65.7446C123.819 65.8748 123.98 66.0535 124.091 66.2432C124.963 67.7383 126.101 69.0011 127.328 70.2221C128.985 71.8719 130.521 73.6427 132.11 75.3614C132.456 75.7361 132.804 76.1098 133.085 76.584C132.696 76.2968 132.264 76.0516 131.924 75.7153C130.499 74.3087 129.047 72.9236 127.709 71.4375C126.32 69.8944 125.053 68.2432 123.729 66.6417C123.646 66.5408 123.545 66.4492 123.438 66.3739C122.252 65.5448 121.041 64.7505 119.887 63.8806C119.33 63.4606 118.814 62.9493 118.398 62.3917C117.882 61.7007 117.181 61.3413 116.377 61.0821L116.377 61.0822Z" fill="black"/>
<path d="M112.884 68.3675C109.765 65.6943 106.647 63.0212 103.529 60.348C103.557 60.2749 103.585 60.2016 103.613 60.1284C104.251 60.5387 104.901 61.2375 105.527 59.9688C105.986 60.5646 106.488 61.0143 106.735 61.5749C107.42 63.1312 108.691 64.1898 109.825 65.3605C110.169 65.7155 110.688 65.9027 111.201 66.211C110.594 65.0309 110.026 63.9275 109.379 62.6702C109.949 63.2807 110.415 63.7706 110.867 64.2722C110.936 64.3483 111 64.5001 110.97 64.5801C110.78 65.0764 111.091 65.4184 111.321 65.7789C111.862 66.6243 112.415 67.4611 112.963 68.3013C112.937 68.3233 112.91 68.3455 112.884 68.3676L112.884 68.3675Z" fill="black"/>
<path d="M105.771 56.1758C106.67 56.9799 107.568 57.7838 108.466 58.5879C108.447 58.619 108.428 58.6501 108.409 58.6811C108.186 58.5309 107.963 58.3807 107.696 58.2012C108.054 59.1969 108.551 59.6744 108.905 59.6272C109.965 60.6845 110.937 61.6542 111.909 62.624C111.898 62.6455 111.886 62.667 111.875 62.6885C111.236 62.3337 110.597 61.9787 109.815 61.5446C109.906 62.0392 109.976 62.4217 110.047 62.8043C108.83 60.4651 107.596 58.1341 105.771 56.1758Z" fill="black"/>
<path d="M101.206 65.7299C100.758 64.8116 100.31 63.8934 99.7969 62.8415C100.084 63.2004 100.3 63.472 100.517 63.7435C100.573 63.7255 100.629 63.7075 100.685 63.6895C100.634 62.6045 100.584 61.5195 100.533 60.4346C101.227 62.179 101.317 64.0168 101.567 65.9121C101.382 65.814 101.286 65.7634 101.19 65.7127L101.206 65.7297V65.7299Z" fill="black"/>
<path d="M101.2 49.437C101.902 50.3497 102.603 51.2623 103.304 52.175L103.166 52.2764C102.892 52.0302 102.596 51.8047 102.352 51.5324C102.076 51.2235 101.818 50.8898 101.605 50.5352C101.407 50.2038 101.278 49.8308 101.119 49.4761C101.146 49.4631 101.173 49.45 101.2 49.437Z" fill="black"/>
<path d="M101.191 65.7129C101.292 66.1904 101.393 66.6679 101.499 67.1698C101.15 67.0107 100.824 66.8997 100.547 66.7153C100.457 66.6548 100.416 66.3297 100.488 66.2549C100.69 66.0445 100.964 65.9014 101.208 65.7308C101.207 65.7298 101.191 65.7129 101.191 65.7129H101.191Z" fill="black"/>
<path d="M104.77 64.6266C104.451 63.8316 104.094 62.9402 103.764 62.1167C103.965 62.2451 104.263 62.4346 104.568 62.6283C104.637 63.3185 104.71 64.0325 104.77 64.6266Z" fill="black"/>
<path d="M100.52 58.3496L101.165 60.2256C100.074 59.8893 100.828 58.9319 100.332 58.3959C100.395 58.3805 100.457 58.365 100.52 58.3496Z" fill="black"/>
<path d="M103.044 60.9848C102.863 60.6226 102.702 60.301 102.541 59.9794C102.58 59.9383 102.619 59.8971 102.658 59.856C102.943 60.0361 103.228 60.2163 103.532 60.4084C103.365 60.6057 103.23 60.7657 103.044 60.9849V60.9848Z" fill="black"/>
<path d="M111.126 61.0255C110.816 60.6877 110.536 60.3827 110.256 60.0777C110.271 60.0375 110.287 59.9973 110.302 59.957C110.602 60.0008 110.902 60.0447 111.126 60.0775V61.0255Z" fill="black"/>
<path d="M115.445 63.3545L114.068 62.3479L114.21 62.1479L115.589 63.1508L115.445 63.3545Z" fill="black"/>
<path d="M110.783 63.4933C110.571 63.0707 110.407 62.7432 110.242 62.4157C110.291 62.3925 110.34 62.3694 110.39 62.3462C110.592 62.6744 111.151 62.8381 110.783 63.4932L110.783 63.4933Z" fill="black"/>
</g>
<defs>
<clipPath id="clip0_2560_1527">
<rect width="97" height="86" fill="white" transform="translate(51 23)"/>
</clipPath>
</defs>
</svg>
