<svg width="198" height="132" viewBox="0 0 198 132" fill="none" xmlns="http://www.w3.org/2000/svg">
<g clip-path="url(#clip0_2560_1790)">
<path d="M110.765 105.461L109.145 105.343C109.422 101.557 109.501 98.0466 109.501 94.7732C86.0762 89.6461 85.2861 76.789 84.7726 67.9941C84.7477 66.8983 84.6554 65.8051 84.4961 64.7207C83.469 55.6497 68.3396 54.151 68.1816 54.1116V52.4946C69.6827 52.4946 71.4603 51.3508 73.3564 50.0099C76.1216 48.1169 79.5583 45.8294 83.9035 45.8294C88.2424 46.2004 92.338 47.9885 95.5567 50.917C97.2948 49.3 99.1119 47.8013 100.89 46.3421C106.973 41.215 112.701 36.4035 113.017 31.2764L113.214 28.3579L114.557 30.9214C117.48 37.1449 118.311 44.1443 116.927 50.8776C115.555 57.6102 112.068 63.7305 106.973 68.3491C109.531 76.0634 110.89 84.1237 111.002 92.2491C114.091 93.3143 117.244 94.1837 120.443 94.8521L120.206 96.4691C117.144 96.1957 114.098 95.7612 111.081 95.1676C111.042 98.3227 110.963 101.793 110.765 105.461ZM86.3922 69.4139C86.9452 77.6961 88.6438 87.9502 107.723 92.7224C101.838 90.356 95.8332 86.8854 94.7667 82.1527C93.9371 78.4454 96.2282 74.541 101.601 70.5971C102.865 69.6505 104.01 68.7435 105.077 67.7969C103.349 62.9449 100.677 58.4817 97.2158 54.6637C96.6628 54.0721 96.1097 53.52 95.5962 53.0467C90.4609 57.8188 86.3922 63.0248 86.3922 69.4139ZM105.669 69.4139C104.721 70.2421 103.694 71.0309 102.588 71.8986C97.8083 75.4086 95.7147 78.7609 96.3863 81.7189C97.3343 86.0572 103.536 89.3306 109.422 91.5392C109.266 84.0201 108.002 76.5649 105.669 69.4139ZM96.7813 51.903C97.3343 52.4157 97.8873 52.9678 98.4009 53.52C101.835 57.3423 104.528 61.769 106.341 66.5743C119.574 53.7172 116.137 39.4008 114.083 33.9188C112.464 38.6909 107.289 42.9898 101.917 47.4858C100.218 48.9451 98.4404 50.4043 96.7813 51.903ZM71.6183 53.0073C76.3191 53.9933 84.3776 56.7146 85.8787 63.4981C87.8085 59.0718 90.7112 55.1359 94.3716 51.9819C91.4863 49.3771 87.8355 47.7724 83.9628 47.4069C80.0916 47.4069 77.0104 49.4972 74.3242 51.3114C73.3564 51.9424 72.4479 52.534 71.6183 53.0073Z" fill="black"/>
<path d="M98.9726 107C90.8585 106.978 82.9326 104.558 76.1943 100.044C69.4561 95.5311 64.2075 89.1267 61.1104 81.6389C58.0133 74.1511 57.2064 65.9153 58.7916 57.9702C60.3768 50.0252 64.2829 42.7267 70.0175 36.9953C75.7497 31.2807 83.0364 27.3723 90.9734 25.7552C99.6188 24.0781 108.575 25.2128 116.527 28.9929C124.479 32.7729 131.007 38.999 135.153 46.7568C139.299 54.5146 140.844 63.3952 139.561 72.0944C138.278 80.7937 134.236 88.8531 128.027 95.089C124.215 98.896 119.684 101.909 114.696 103.954C109.709 105.999 104.364 107.034 98.9726 107ZM98.9726 26.5834C91.1868 26.587 83.5771 28.8976 77.1076 33.2224C70.638 37.5473 65.5996 43.6919 62.6305 50.8779C59.6628 58.0792 58.8798 65.9923 60.3789 73.6342C61.5038 79.3372 63.8832 84.7197 67.3453 89.3929C70.8074 94.066 75.2658 97.9132 80.3985 100.657C85.5312 103.4 91.21 104.971 97.0249 105.256C102.84 105.542 108.646 104.534 114.023 102.306C122.45 98.8255 129.407 92.5353 133.71 84.5072C138.012 76.4792 139.394 67.2101 137.619 58.2792C135.844 49.3484 131.022 41.3082 123.975 35.5287C116.928 29.7492 108.092 26.5879 98.9726 26.5834Z" fill="black"/>
</g>
<defs>
<clipPath id="clip0_2560_1790">
<rect width="82" height="82" fill="white" transform="translate(58 25)"/>
</clipPath>
</defs>
</svg>
