<svg width="198" height="132" viewBox="0 0 198 132" fill="none" xmlns="http://www.w3.org/2000/svg">
<g clip-path="url(#clip0_2561_1805)">
<path d="M30.5825 54.8169C30.2332 55.7768 29.8933 56.7402 29.5323 57.6957C29.2462 58.4534 29.3225 58.6546 30.1018 58.6647C32.052 58.69 34.0032 58.664 35.9538 58.6563C36.4966 58.6542 36.81 58.4242 36.8093 57.8312C36.8066 55.9307 36.8442 54.0296 36.8093 52.1299C36.7962 51.4159 36.4573 51.2828 35.7578 51.5862C34.8708 51.9711 33.9991 52.403 33.0859 52.7115C32.6079 52.873 32.6 52.7316 32.8426 52.2313C33.8855 50.0832 34.788 47.8673 35.7968 45.7018C36.6109 43.9539 37.504 42.2431 38.4786 40.2808C39.1861 41.6921 39.7949 42.9088 40.4057 44.1244C40.9993 45.3057 41.5822 46.4929 42.2013 47.6609C42.3228 47.8902 42.6351 48.2269 42.7773 48.1907C43.0524 48.1206 43.3661 47.868 43.4944 47.6071C44.4815 45.6024 45.4257 43.5762 46.3896 41.5597C46.5604 41.2026 46.7606 40.8593 47.0867 40.2485C49.2937 44.6974 51.4037 48.9509 53.6573 53.4932C52.3562 53.0467 51.412 52.4387 50.4049 51.9853C49.4217 51.5427 49.2088 51.6643 49.1943 52.7806C49.1674 54.8534 49.1863 56.9268 49.186 58.9999L49.226 58.961C45.6141 58.9541 42.0018 58.9631 38.3903 58.9283C37.5323 58.92 36.7931 58.9627 36.4552 59.9338C36.3948 60.1075 36.1319 60.2316 35.9393 60.3347C34.5775 61.0643 33.2105 61.7839 31.8435 62.5037C30.5276 63.1969 29.2024 63.8729 27.9 64.5904C27.6794 64.712 27.5517 65.0035 27.3809 65.2164C27.5873 65.3617 27.7781 65.5396 28.0021 65.6473C30.5321 66.8629 33.0742 68.0539 35.5945 69.29C36.0232 69.5002 36.6326 69.848 36.6913 70.2086C36.8393 71.1213 37.387 71.1304 38.0462 71.1283C41.7727 71.1168 45.4995 71.1088 49.226 71.0994L49.1867 71.0612C49.1874 73.1924 49.1677 75.3235 49.1984 77.4539C49.2115 78.3464 49.4662 78.5035 50.2496 78.147C51.2863 77.6752 52.2975 77.1468 53.7235 76.4432C51.441 81.0484 49.3403 85.287 47.1554 89.6952C46.5445 89.0872 46.3602 88.4309 46.0786 87.8514C45.2283 86.1003 44.4183 84.3295 43.5628 82.5812C43.4271 82.304 43.1317 81.9121 42.9171 81.9166C42.6569 81.9218 42.3062 82.2404 42.164 82.5125C41.2333 84.2955 40.3581 86.1076 39.4418 87.899C39.1602 88.4493 38.8075 88.9628 38.4876 89.4933C38.1853 88.9771 37.8436 88.4799 37.5868 87.9417C36.254 85.1501 34.9488 82.3453 33.6184 79.5527C33.3727 79.0371 33.0159 78.5733 32.7922 78.0501C32.6953 77.8232 32.8057 77.5067 32.8219 77.2312C33.0328 77.2725 33.2554 77.2833 33.4524 77.3604C34.1982 77.6516 34.9243 77.9983 35.6801 78.2586C36.4149 78.5115 36.7624 78.2711 36.7803 77.4629C36.8166 75.8509 36.8193 74.2367 36.7824 72.625C36.761 71.6856 36.5729 71.4799 35.6736 71.4563C33.8955 71.4097 32.1158 71.4274 30.3368 71.4271C29.7025 71.4271 29.5161 71.7033 29.8119 72.2984C30.3699 73.4217 30.9076 74.5553 31.5733 75.9329C30.9687 75.6813 30.5625 75.5417 30.1829 75.3499C26.6048 73.5433 23.0294 71.7314 19.4582 69.9112C18.8774 69.6152 18.8581 69.232 19.4334 68.9357C21.1675 68.0417 22.92 67.1836 24.6656 66.3119C24.9738 66.158 25.3116 66.0454 25.5846 65.8439C25.8811 65.6254 26.1175 65.3252 26.3804 65.0605C26.1337 64.8388 25.919 64.5577 25.6353 64.4049C23.8218 63.4279 21.9934 62.4794 20.1698 61.5216C19.8651 61.3614 19.5469 61.2217 19.2598 61.0341C18.817 60.7451 19.0013 60.4251 19.3312 60.242C19.8299 59.9651 20.3828 59.7886 20.8952 59.5343C23.9702 58.0098 27.0389 56.4734 30.1142 54.9496C30.2615 54.8766 30.4496 54.8853 30.6187 54.8561L30.5811 54.8176L30.5825 54.8169ZM41.4535 58.5882C42.5782 58.5208 44.4459 58.4187 46.3119 58.2926C47.1029 58.2391 47.1671 58.1195 46.8361 57.3267C46.4424 56.3824 46.0251 55.4478 45.6003 54.5171C44.8404 52.8511 44.0853 51.1828 43.2901 49.5339C43.0341 49.0034 42.6862 49.0159 42.436 49.5071C41.3199 51.698 40.2276 53.9011 39.0967 56.0843C37.7118 58.7581 37.7335 58.6129 41.4535 58.5882ZM40.5914 71.4681C40.1345 71.4681 39.6765 71.4514 39.2203 71.4712C38.1194 71.5191 37.982 71.704 38.4672 72.6858C39.7597 75.3005 41.0849 77.899 42.4073 80.4984C42.7035 81.0807 43.0254 81.0762 43.3367 80.4303C44.1315 78.7821 44.8845 77.1138 45.6438 75.4486C46.0679 74.5181 46.4538 73.5697 46.891 72.6458C47.1712 72.0535 47.0101 71.7957 46.3751 71.7644C44.4469 71.6699 42.5192 71.5667 40.5914 71.4681Z" fill="black"/>
<path d="M49.1875 58.9994C50.9648 58.9956 52.7425 58.9984 54.5198 58.9855C56.2933 58.9727 56.411 58.7993 55.7625 57.0782C55.5827 56.6005 55.2935 56.1651 55.0837 55.6975C54.8829 55.2503 54.72 54.7865 54.4553 54.1143C57.0833 55.5085 59.4656 56.794 61.8689 58.0381C63.2356 58.7458 64.6412 59.3774 66.0196 60.0633C66.2611 60.1835 66.4547 60.401 66.6704 60.5736C66.4537 60.805 66.2787 61.117 66.0137 61.2549C64.1311 62.2333 62.2261 63.1689 60.3384 64.1376C60.0039 64.3092 59.7161 64.5725 59.4066 64.7935C59.7172 65.1725 59.9539 65.6843 60.3511 65.9063C61.802 66.7165 63.3142 67.4148 64.7872 68.1865C65.4325 68.5245 66.0392 68.9376 66.6635 69.3167C66.482 70.2954 65.5019 70.1112 64.9131 70.4628C63.3104 71.4203 61.6225 72.2347 59.9594 73.0887C58.1997 73.9924 56.4303 74.8766 54.4404 75.8827C54.741 75.2143 54.9664 74.723 55.1838 74.2283C55.4827 73.5476 55.8326 72.8827 56.0545 72.1774C56.2785 71.4669 55.991 71.1018 55.2079 71.0879C53.2018 71.0528 51.1947 71.0667 49.1878 71.0608L49.2272 71.099C49.2389 70.4312 49.4149 70.0025 50.1421 69.6592C52.7225 68.4408 55.2411 67.089 57.7728 65.7684C58.1114 65.5919 58.3916 65.3028 58.6987 65.0662C58.4144 64.8175 58.1659 64.4982 57.8398 64.3314C55.3443 63.055 52.8577 61.7556 50.3132 60.5834C49.516 60.2161 49.1312 59.8131 49.2275 58.9602L49.1875 58.9994Z" fill="black"/>
<path d="M81.1468 66.8722C82.6376 66.8722 84.1296 66.8458 85.6194 66.884C86.2996 66.9014 86.9926 66.9816 87.6524 67.1442C90.4844 67.8425 91.6405 70.7189 90.1231 73.22C89.7264 73.8739 89.7966 74.5096 90.3336 75.1271C92.4888 77.6046 91.3261 81.1772 88.1404 81.8067C87.3025 81.9724 86.4415 82.0923 85.5897 82.1024C82.5507 82.1382 79.5113 82.1256 76.4719 82.1152C74.7633 82.1093 74.6691 82.027 74.6639 80.4114C74.6508 76.44 74.6515 72.4685 74.6639 68.4971C74.6687 66.9149 74.7077 66.8864 76.3304 66.8729C77.9359 66.8597 79.5417 66.8701 81.1475 66.8701V66.8729L81.1468 66.8722ZM82.4264 75.586C81.5091 75.586 80.5918 75.5832 79.6745 75.5864C76.9906 75.5957 77.1442 75.2837 77.1656 78.2685C77.1749 79.5818 77.2453 79.6551 78.5219 79.6659C80.987 79.6864 83.4525 79.6815 85.9179 79.6586C86.4273 79.6537 86.9533 79.5835 87.4405 79.4393C88.3565 79.168 88.8517 78.4137 88.8117 77.4941C88.7747 76.6477 88.2957 76.0224 87.3933 75.766C86.9598 75.6426 86.4922 75.603 86.0387 75.5943C84.835 75.5718 83.6309 75.5867 82.4268 75.586H82.4264ZM82.042 73.1398C82.042 73.1363 82.042 73.1332 82.042 73.1297C83.4756 73.1297 84.9095 73.138 86.3431 73.1269C87.3391 73.1189 87.9303 72.4981 88.2774 71.6611C88.5811 70.9294 88.2591 70.2374 87.6845 69.8257C87.2573 69.5196 86.6413 69.3622 86.1036 69.3483C83.9829 69.2937 81.8601 69.2965 79.7384 69.3254C76.8612 69.3646 77.1704 68.7181 77.1563 72.2236C77.1535 72.8771 77.4299 73.1568 78.085 73.1464C79.4036 73.1255 80.723 73.1398 82.042 73.1398Z" fill="black"/>
<path d="M91.2574 51.9428C89.4083 54.4203 87.5537 56.8933 85.7122 59.3764C84.4087 61.134 84.3911 61.1375 83.1128 59.4174C81.5032 57.2515 79.8867 55.0909 78.2723 52.9285C78.1011 52.6992 77.9541 52.4348 77.735 52.2663C77.6487 52.1999 77.2542 52.3302 77.2425 52.408C77.1742 52.859 77.1614 53.3207 77.1607 53.7793C77.1552 56.5987 77.1697 59.4181 77.1517 62.2371C77.1445 63.3861 76.0788 63.9767 75.0479 63.4145C74.8795 63.3228 74.7529 63.0803 74.6928 62.8812C74.6286 62.6686 74.66 62.4254 74.66 62.1954C74.6586 58.1104 74.65 54.025 74.6642 49.9399C74.669 48.5373 74.7221 48.5884 76.135 48.4644C77.3122 48.3608 78.0701 48.8146 78.7292 49.7436C80.1242 51.7097 81.5829 53.6303 83.0217 55.5648C83.3295 55.9789 83.6557 56.3802 83.9866 56.7762C84.3335 57.1914 84.6396 57.1146 84.9433 56.6981C85.6193 55.7701 86.3106 54.8532 87.0015 53.936C88.1069 52.4685 89.2123 51.0013 90.326 49.54C91.0497 48.5905 92.8028 48.1114 93.8205 48.603C93.9934 48.6864 94.1539 48.9126 94.2053 49.104C94.2782 49.3743 94.254 49.6738 94.254 49.9607C94.2561 53.9885 94.2633 58.0159 94.2454 62.0436C94.2433 62.5217 94.4939 63.2179 93.8523 63.3961C93.2756 63.5563 92.5992 63.5101 92.008 63.3739C91.8158 63.3298 91.6539 62.7173 91.6481 62.3618C91.6143 60.2912 91.6308 58.2195 91.6305 56.1481C91.6305 54.7747 91.6305 53.4017 91.6305 52.0283C91.5059 51.9998 91.3816 51.9713 91.2571 51.9428H91.2574Z" fill="black"/>
<path d="M93.2654 74.4962C93.2654 72.3655 93.2454 70.2343 93.2736 68.1036C93.2881 67.0102 93.3944 66.8879 94.4622 66.882C97.9047 66.8629 101.352 66.7816 104.789 66.9223C108.493 67.0741 110.456 70.7808 108.724 74.0738C108.268 74.9406 107.582 75.5264 106.709 75.8564C105.911 76.1587 105.954 76.5878 106.333 77.1746C107.144 78.4291 107.962 79.6792 108.758 80.9438C109.296 81.7988 109.158 82.0191 108.196 82.1247C107.1 82.2449 106.346 81.8509 105.771 80.8966C105.031 79.6667 104.179 78.5049 103.404 77.2951C102.961 76.6034 102.408 76.2706 101.554 76.3018C100.006 76.3588 98.4551 76.2963 96.9066 76.3275C95.92 76.3473 95.8047 76.4616 95.7729 77.4192C95.735 78.5698 95.7898 79.7236 95.7505 80.874C95.7167 81.8642 95.4358 82.1087 94.5126 82.114C93.5849 82.1195 93.2902 81.8784 93.2754 80.8886C93.2429 78.7581 93.2654 76.6274 93.2654 74.4962ZM100.7 73.883C100.7 73.8733 100.7 73.8639 100.7 73.8542C102.017 73.8542 103.339 73.9261 104.65 73.8344C106.009 73.7392 106.655 73.0002 106.704 71.7443C106.756 70.4275 106.049 69.4512 104.719 69.3998C102.031 69.2963 99.3372 69.3401 96.6457 69.3307C96.0935 69.3286 95.7954 69.635 95.7833 70.1822C95.7643 71.0442 95.7353 71.9079 95.775 72.7681C95.8185 73.7118 95.9545 73.8472 96.9204 73.8747C98.1794 73.9105 99.4404 73.883 100.7 73.883Z" fill="black"/>
<path d="M115.618 55.9268C115.617 53.8568 115.6 51.7865 115.624 49.7165C115.637 48.5988 115.71 48.5043 116.789 48.4988C120.341 48.48 123.894 48.4578 127.445 48.5238C129.515 48.5624 131.042 49.752 131.425 51.6854C131.841 53.7821 131.677 55.8146 129.552 57.1525C128.194 58.0079 128.192 58.0176 129.012 59.2927C129.757 60.451 130.518 61.5999 131.267 62.7551C131.605 63.2746 131.357 63.4646 130.841 63.5226C129.631 63.6585 128.637 63.484 127.972 62.2333C127.328 61.0232 126.443 59.9451 125.718 58.7754C125.348 58.1774 124.907 57.8661 124.193 57.8766C122.532 57.9005 120.87 57.8623 119.209 57.8932C118.255 57.911 118.149 58.0284 118.12 59.0182C118.086 60.1672 118.135 61.3189 118.1 62.4678C118.071 63.4222 117.88 63.5494 116.778 63.5327C115.79 63.5177 115.64 63.4232 115.627 62.4824C115.598 60.2978 115.618 58.1125 115.617 55.9271L115.618 55.9268ZM122.915 55.4737C122.915 55.4661 122.915 55.4588 122.915 55.4512C124.233 55.4512 125.56 55.5401 126.869 55.4296C128.704 55.2747 129.628 53.4253 128.707 51.9011C128.208 51.0757 127.361 50.7956 126.497 50.7755C124.032 50.7171 121.565 50.7529 119.1 50.7393C118.464 50.7359 118.131 51.0253 118.122 51.6597C118.109 52.523 118.089 53.3871 118.118 54.2498C118.154 55.3587 118.227 55.44 119.302 55.4668C120.506 55.497 121.71 55.4737 122.915 55.4737Z" fill="black"/>
<path d="M160.894 74.2335C160.892 78.0288 158.978 80.7221 155.541 81.8738C152.594 82.8612 149.729 82.6924 146.882 81.3044C141.767 78.8112 141.055 70.9441 146.79 67.6654C150.243 65.691 155.874 66.0624 158.621 68.9391C160.129 70.5181 161.046 72.265 160.894 74.2335ZM151.867 68.7612C150.87 68.9703 149.833 69.0669 148.885 69.4116C146.611 70.2381 145.321 72.2028 145.345 74.5723C145.369 76.8702 146.658 78.732 148.889 79.5533C151.135 80.3799 153.384 80.3448 155.532 79.2306C159.015 77.4247 159.386 72.5419 156.243 70.1947C154.955 69.2327 153.501 68.8123 151.867 68.7612Z" fill="black"/>
<path d="M162.877 74.5333C162.876 72.4015 162.857 70.2697 162.884 68.1382C162.899 66.9472 162.978 66.9483 164.186 66.8579C165.306 66.7742 166.127 67.1171 166.881 68.0027C169.561 71.1553 172.317 74.2429 175.043 77.3562C175.27 77.615 175.465 77.9075 175.717 78.1375C176.116 78.502 176.472 78.363 176.529 77.8137C176.577 77.3572 176.56 76.8934 176.56 76.4327C176.562 73.7248 176.547 71.0166 176.568 68.3088C176.578 67.0181 176.902 66.7582 178.082 66.8704C178.626 66.9222 178.936 67.1612 178.972 67.7116C178.995 68.0559 178.997 68.4022 178.997 68.7476C178.999 72.6079 178.998 76.4681 178.997 80.3284C178.997 80.6164 178.996 80.9044 178.986 81.1925C178.965 81.8293 178.618 82.0544 178 82.1284C176.612 82.2945 175.637 81.7754 174.739 80.7033C172.046 77.4864 169.264 74.3446 166.513 71.1778C166.326 70.9624 166.127 70.7317 165.883 70.6032C165.771 70.5445 165.399 70.6956 165.385 70.7884C165.316 71.2404 165.314 71.7045 165.314 72.1645C165.309 75.0454 165.328 77.9263 165.301 80.8068C165.291 81.8602 165.04 82.0857 164.139 82.1135C163.183 82.143 162.903 81.9276 162.887 80.9288C162.854 78.7976 162.877 76.6655 162.876 74.5336L162.877 74.5333Z" fill="black"/>
<path d="M111.807 74.3462C111.807 72.3322 111.791 70.3178 111.812 68.3038C111.826 66.9596 111.889 66.8824 113.131 66.8769C117.03 66.8599 120.929 66.8588 124.827 66.8814C125.931 66.8877 126.225 67.3087 126.087 68.3854C125.976 69.245 125.385 69.32 124.711 69.3193C121.959 69.3162 119.207 69.3186 116.455 69.3193C116.054 69.3193 115.652 69.3297 115.251 69.321C114.637 69.3075 114.326 69.5521 114.252 70.2125C113.96 72.812 114.171 73.0667 116.791 73.0677C118.339 73.0684 119.887 73.0465 121.435 73.0792C122.403 73.0997 122.513 73.2525 122.514 74.2034C122.515 75.1481 122.413 75.2916 121.421 75.3079C119.529 75.3385 117.637 75.3044 115.745 75.3253C114.347 75.3409 114.264 75.4087 114.264 76.7866C114.263 79.9603 113.936 79.6664 117.102 79.6723C119.854 79.6775 122.606 79.6581 125.358 79.6817C126.563 79.6921 126.775 79.9791 126.684 81.1117C126.635 81.7322 126.351 82.0637 125.735 82.1074C125.677 82.1116 125.62 82.113 125.563 82.113C121.32 82.1144 117.077 82.1279 112.835 82.1064C111.942 82.1019 111.83 81.9594 111.816 80.9071C111.788 78.7207 111.807 76.5333 111.807 74.3462Z" fill="black"/>
<path d="M112.596 63.5326C111.822 63.6786 111.404 63.1949 111.023 62.4337C109.788 59.9583 110.495 60.3276 107.59 60.296C105.642 60.2748 103.694 60.3168 101.747 60.2811C100.898 60.2654 100.317 60.5135 100.035 61.3706C99.8926 61.8028 99.6714 62.2194 99.4246 62.6029C99.2176 62.9243 98.9515 63.3916 98.6585 63.4354C98.0035 63.533 97.3153 63.4062 96.6406 63.3711C96.7952 62.86 96.8836 62.3166 97.1145 61.8431C99.0781 57.8202 101.056 53.804 103.065 49.8037C103.305 49.327 103.702 48.6929 104.128 48.5998C104.938 48.4226 105.834 48.5085 106.668 48.6471C106.946 48.6933 107.193 49.2092 107.366 49.5549C109.47 53.7664 111.565 57.9825 113.643 62.2069C114.204 63.3471 114.041 63.5514 112.596 63.5326ZM105.234 57.8439V57.8661C105.976 57.8661 106.72 57.889 107.461 57.8605C108.48 57.8216 108.602 57.6639 108.211 56.7644C107.756 55.7179 107.233 54.7014 106.729 53.6772C106.376 52.9611 106.025 52.2426 105.631 51.5488C105.505 51.3251 105.219 51.035 105 51.4679C104.043 53.3558 103.103 55.2524 102.18 57.157C101.966 57.5996 102.294 57.8171 102.666 57.8324C103.52 57.8682 104.378 57.8439 105.234 57.8439Z" fill="black"/>
<path d="M142.42 47.7368C144.646 47.8942 146.672 48.4025 148.466 49.6862C148.838 49.952 149.18 50.2654 149.508 50.585C149.909 50.9748 150.465 51.3581 150.2 52.0147C149.992 52.5303 148.362 52.7492 147.912 52.3097C146.695 51.1232 145.196 50.6232 143.578 50.4197C141.768 50.1917 140.03 50.4297 138.459 51.4428C136.474 52.7241 135.545 55.0206 136.089 57.2723C136.587 59.3354 138.558 61.1274 140.71 61.3636C143.329 61.6513 145.87 61.5679 147.977 59.6043C148.497 59.1199 149.912 59.6043 150.105 60.2883C150.168 60.5121 150.062 60.8755 149.901 61.0537C149.479 61.5193 149.039 62.0116 148.508 62.3278C144.878 64.4891 141.114 64.6757 137.364 62.7398C134.547 61.2848 133.224 58.7586 133.368 55.6405C133.526 52.1978 135.437 49.8422 138.603 48.6165C139.809 48.1499 141.144 48.0203 142.42 47.7372L142.42 47.7368Z" fill="black"/>
<path d="M135.318 66.8713C137.554 66.8723 139.79 66.8518 142.026 66.881C143.117 66.8952 143.29 67.1596 143.24 68.2478C143.208 68.9534 142.901 69.3116 142.191 69.3116C140.929 69.3116 139.668 69.3144 138.407 69.3199C138.006 69.3217 137.604 69.3213 137.204 69.3477C136.74 69.3783 136.464 69.6344 136.444 70.1124C136.424 70.5721 136.422 71.0328 136.422 71.4928C136.42 74.6001 136.436 77.7079 136.413 80.8149C136.404 82.0018 136.085 82.23 134.967 82.1185C134.41 82.0629 134.13 81.7679 134.063 81.2628C134.002 80.8094 133.997 80.3463 133.997 79.8873C133.991 77.0676 133.995 74.2479 133.995 71.4281C133.995 69.3126 134.172 69.3001 131.975 69.3168C130.886 69.3251 129.796 69.3314 128.707 69.3133C127.46 69.2925 127.315 69.1594 127.296 68.1428C127.277 67.0544 127.453 66.8841 128.782 66.874C130.961 66.8581 133.14 66.8695 135.318 66.8706L135.318 66.8713Z" fill="black"/>
<path d="M79.6336 43.839C79.1604 43.7806 78.71 43.7612 78.2807 43.6552C78.1027 43.6111 77.9698 43.3825 77.8166 43.2376C77.9974 43.0604 78.1568 42.7693 78.3639 42.7296C78.8074 42.6452 79.2791 42.6522 79.7326 42.6953C80.1122 42.731 80.7717 42.8172 80.8011 42.9756C80.8863 43.4381 80.8601 44.0322 80.6264 44.4241C79.4534 46.3915 76.0762 46.2658 74.9687 44.2538C74.3213 43.0778 74.5853 41.6912 75.6196 40.8351C76.9845 39.7049 78.9651 39.7244 80.1823 40.8945C80.2848 40.9929 80.3862 41.2656 80.3403 41.3132C80.2002 41.4581 79.9652 41.6429 79.8078 41.6109C79.4827 41.5446 79.1956 41.3118 78.8726 41.2124C78.0295 40.9529 77.1954 40.8501 76.433 41.4733C75.4004 42.3179 75.3673 43.6562 76.4848 44.3699C76.9686 44.6787 77.6564 44.7221 78.2607 44.7684C78.8609 44.8142 79.3775 44.5651 79.6336 43.8386V43.839Z" fill="black"/>
<path d="M121.433 87.918C121.466 84.9652 121.032 85.3012 124.1 85.2783C124.558 85.2748 125.021 85.2477 125.472 85.3067C126.836 85.485 127.503 86.6294 126.812 87.7999C126.371 88.5465 125.971 89.1378 126.639 89.9317C126.734 90.0436 126.606 90.3431 126.581 90.556C126.375 90.5064 126.108 90.5206 125.975 90.3938C125.69 90.1217 125.423 89.8035 125.239 89.4557C124.886 88.7904 124.331 88.6719 123.656 88.6862C122.592 88.7088 122.566 88.7088 122.319 89.7705C122.306 89.8257 122.329 89.8959 122.302 89.94C122.169 90.1641 122.025 90.3816 121.884 90.6015C121.734 90.3385 121.482 90.0863 121.453 89.8108C121.388 89.1858 121.433 88.5493 121.433 87.9177L121.433 87.918ZM124.133 87.7186C124.134 87.6995 124.134 87.68 124.135 87.6609C124.529 87.6609 124.944 87.737 125.31 87.6352C125.572 87.5622 125.86 87.2864 125.958 87.0317C126.011 86.8931 125.708 86.4387 125.535 86.4213C124.652 86.3313 123.758 86.3077 122.871 86.3414C122.738 86.3466 122.514 86.7816 122.526 87.0071C122.538 87.2228 122.765 87.5414 122.965 87.6067C123.327 87.7255 123.74 87.6898 124.132 87.7186H124.133Z" fill="black"/>
<path d="M166.348 90.823C164.392 90.8341 163.025 89.7532 162.905 88.2326C162.756 86.3387 164.535 84.7833 166.523 85.0862C166.859 85.1377 167.192 85.2464 167.511 85.3697C168.84 85.8839 169.509 86.9565 169.369 88.3198C169.248 89.5052 168.136 90.611 166.869 90.7934C166.644 90.8258 166.413 90.8199 166.348 90.823H166.348ZM166.189 89.8078C167.585 89.7935 168.378 89.1029 168.335 87.939C168.295 86.8529 167.296 85.9989 166.093 86.0233C164.891 86.0476 163.931 86.9457 163.947 88.0328C163.964 89.1946 164.757 89.8227 166.189 89.8081V89.8078Z" fill="black"/>
<path d="M148.058 43.8867C148.058 42.9219 148.031 41.9553 148.08 40.993C148.091 40.7789 148.372 40.5788 148.528 40.3721C148.706 40.5569 149.029 40.7362 149.036 40.928C149.086 42.1899 149.105 43.4559 149.057 44.7177C149.027 45.5047 148.385 45.8048 147.746 45.3435C147.335 45.0464 147.001 44.6337 146.657 44.2508C146.121 43.6546 145.617 43.0282 145.07 42.4414C144.936 42.2972 144.691 42.2569 144.497 42.1687C144.419 42.3691 144.285 42.5668 144.275 42.7708C144.239 43.4587 144.287 44.1528 144.219 44.8362C144.197 45.0593 143.918 45.2566 143.757 45.4658C143.591 45.2715 143.288 45.0825 143.28 44.8824C143.234 43.6202 143.218 42.3542 143.264 41.092C143.294 40.2846 143.912 40.0028 144.557 40.5201C145.087 40.9447 145.507 41.5079 145.968 42.0165C146.57 42.679 147.164 43.3482 147.761 44.0145L148.057 43.8867H148.058Z" fill="black"/>
<path d="M173.114 87.9484C173.114 87.3734 173.067 86.7928 173.133 86.2251C173.167 85.9281 173.335 85.4962 173.554 85.4104C173.8 85.3142 174.26 85.4438 174.471 85.6425C175.094 86.2317 175.644 86.8995 176.215 87.5436C176.519 87.8869 176.789 88.2621 177.11 88.5876C177.245 88.7245 177.471 88.77 177.656 88.8572C177.743 88.6554 177.893 88.4566 177.904 88.251C177.943 87.505 177.902 86.7536 177.967 86.0111C177.986 85.7995 178.264 85.6109 178.424 85.4118C178.594 85.6105 178.906 85.8044 178.913 86.0087C178.957 87.2719 178.961 88.5386 178.908 89.8012C178.896 90.0969 178.642 90.5954 178.446 90.6229C178.112 90.6701 177.635 90.5179 177.396 90.2744C176.553 89.4162 175.797 88.4726 174.981 87.5874C174.818 87.4109 174.534 87.3473 174.306 87.2316C174.254 87.4508 174.169 87.6687 174.158 87.89C174.128 88.5213 174.178 89.1612 174.094 89.7838C174.054 90.0771 173.788 90.5666 173.611 90.5728C173.031 90.5933 173.146 90.0427 173.125 89.674C173.093 89.1008 173.116 88.524 173.116 87.9491H173.114V87.9484Z" fill="black"/>
<path d="M101.797 45.9098C101.125 45.6857 100.313 45.4383 99.5247 45.1298C99.3963 45.0794 99.2682 44.7087 99.3304 44.576C99.3959 44.4363 99.7031 44.3147 99.8819 44.3411C100.718 44.4638 101.542 44.6802 102.38 44.7771C102.689 44.8129 103.054 44.6667 103.34 44.5065C103.731 44.2869 103.716 43.697 103.308 43.5382C102.837 43.3548 102.321 43.2696 101.818 43.188C101.311 43.1057 100.744 43.1953 100.298 42.9966C99.875 42.8083 99.3145 42.3649 99.2845 41.9956C99.2462 41.5214 99.555 40.8661 99.9309 40.5416C100.801 39.7905 103.061 39.9038 104.005 40.6306C104.112 40.7133 104.194 40.9405 104.159 41.0645C104.125 41.1858 103.926 41.3404 103.8 41.339C103.524 41.3359 103.251 41.215 102.973 41.1938C102.293 41.142 101.61 41.0767 100.933 41.1121C100.73 41.1229 100.544 41.4477 100.35 41.6287C100.556 41.7799 100.743 42.0168 100.971 42.0665C101.696 42.2249 102.443 42.284 103.17 42.4365C104.198 42.6516 104.808 43.2304 104.822 43.9263C104.835 44.6031 104.227 45.3216 103.32 45.6162C102.892 45.7551 102.43 45.792 101.796 45.9101L101.797 45.9098Z" fill="black"/>
<path d="M133.384 45.831C131.604 45.8324 130.17 44.5834 130.124 42.9926C130.077 41.3673 131.626 39.9696 133.439 40.0005C135.202 40.0307 136.639 41.3687 136.609 42.9523C136.579 44.5706 135.168 45.8297 133.384 45.831ZM133.343 41.0282C131.711 41.0195 130.647 42.4888 131.365 43.7579C131.99 44.8624 133.84 45.2025 134.83 44.3944C135.464 43.8768 135.728 43.0857 135.493 42.4092C135.184 41.5198 134.427 41.0338 133.343 41.0282Z" fill="black"/>
<path d="M106.529 90.9998C105.706 90.7083 104.961 90.4676 104.24 90.1646C104.129 90.1177 104.09 89.78 104.114 89.5889C104.123 89.5135 104.409 89.4023 104.547 89.4274C104.937 89.4986 105.313 89.7088 105.699 89.7241C106.432 89.7532 107.172 89.7122 107.903 89.6348C108.063 89.6177 108.333 89.3051 108.31 89.1689C108.272 88.9347 108.077 88.5887 107.887 88.5425C107.172 88.3691 106.429 88.3086 105.7 88.1856C104.364 87.9605 103.901 87.5731 103.94 86.7417C103.978 85.9218 104.586 85.3009 105.738 85.2617C106.68 85.2297 107.636 85.4688 108.576 85.6404C108.721 85.6671 108.816 85.9764 108.934 86.1549C108.704 86.2689 108.473 86.4753 108.245 86.4721C107.979 86.4687 107.723 86.2202 107.449 86.1872C106.891 86.1198 106.321 86.0754 105.764 86.1264C105.542 86.1469 105.344 86.4436 105.135 86.6146C105.317 86.7928 105.47 87.0544 105.687 87.1312C106.057 87.2615 106.468 87.2684 106.86 87.3393C107.365 87.4307 107.874 87.5109 108.37 87.6381C108.98 87.7941 109.462 88.2319 109.429 88.8287C109.4 89.3346 109.143 90.0281 108.759 90.2685C108.12 90.6666 107.298 90.767 106.53 90.9998H106.529Z" fill="black"/>
<path d="M87.5132 90.8246C85.0916 90.8152 83.6511 88.8175 84.6109 86.7993C85.3263 85.2949 87.4094 84.6525 89.0831 85.4203C90.5012 86.0707 91.1193 87.5716 90.5647 89.0165C90.1333 90.1401 88.9682 90.8301 87.5132 90.8246ZM87.5819 89.809C88.8654 89.7996 89.8451 88.9731 89.8051 87.9336C89.7661 86.9209 88.6776 86.0082 87.5291 86.0248C86.2967 86.0429 85.3239 86.9202 85.3466 87.993C85.3711 89.1437 86.2025 89.8194 87.5819 89.809Z" fill="black"/>
<path d="M100.203 87.9655C100.203 88.6558 100.251 89.3507 100.189 90.0354C100.127 90.7268 99.639 90.9596 99.1248 90.5187C98.5195 89.9997 98.0073 89.3701 97.4648 88.7791C96.9996 88.2723 96.5769 87.7219 96.0816 87.2473C95.7362 86.9166 95.4487 87.0566 95.429 87.544C95.3938 88.406 95.4087 89.2708 95.3545 90.131C95.3445 90.2908 95.1077 90.436 94.9756 90.5879C94.8696 90.4722 94.675 90.3589 94.6715 90.2401C94.6311 88.8045 94.5763 87.3669 94.6191 85.9327C94.6374 85.325 95.2803 85.0964 95.7628 85.5345C96.3964 86.1099 96.9361 86.7901 97.5128 87.428C97.744 87.6837 97.9401 87.9787 98.1999 88.1989C98.4812 88.4376 98.8184 88.6099 99.131 88.8111C99.2218 88.4387 99.3574 88.0707 99.3923 87.6931C99.4396 87.1792 99.3716 86.6536 99.4292 86.1418C99.4561 85.9031 99.6628 85.685 99.7881 85.4577C99.932 85.6603 100.181 85.8535 100.2 86.0671C100.256 86.6953 100.22 87.3318 100.22 87.9648C100.214 87.9648 100.208 87.9648 100.202 87.9648L100.203 87.9655Z" fill="black"/>
<path d="M90.2904 45.5578C87.5699 45.5707 87.7466 45.8955 87.7618 43.1203C87.7798 39.859 87.3756 40.2776 90.5717 40.2491C91.0866 40.2446 91.606 40.2429 92.1143 40.3092C92.2731 40.3301 92.4018 40.5795 92.5444 40.7244C92.377 40.8384 92.2151 41.0409 92.0419 41.051C91.2989 41.0948 90.552 41.0743 89.8069 41.093C89.3341 41.1048 88.8175 41.15 88.8306 41.7844C88.842 42.3313 89.3262 42.2917 89.722 42.3608C90.3001 42.4619 91.3468 42.0516 91.351 42.7478C91.3561 43.5626 90.2929 43.2224 89.6758 43.3287C89.5633 43.3482 89.4021 43.3107 89.3435 43.3739C89.1333 43.6015 88.802 43.869 88.8137 44.1066C88.8248 44.329 89.1995 44.6955 89.438 44.7153C90.4067 44.7963 91.3855 44.7514 92.3583 44.797C92.5198 44.8046 92.671 45.0301 92.8267 45.1552C92.6689 45.2893 92.5178 45.5286 92.3525 45.5391C91.6678 45.5828 90.9786 45.5575 90.2908 45.5575L90.2904 45.5578Z" fill="black"/>
<path d="M77.9157 90.8171C75.5696 90.9654 74.0877 88.7259 75.0292 86.7456C75.9019 84.9098 78.8823 84.5453 80.3646 86.0076C80.4505 86.0924 80.4653 86.3589 80.3963 86.4631C80.3228 86.5739 80.0936 86.6664 79.9625 86.6361C79.6888 86.5729 79.4438 86.386 79.1705 86.3182C78.6784 86.1966 78.1669 86.0222 77.6758 86.0549C76.5652 86.1292 75.6738 87.1333 75.7425 88.1037C75.8081 89.0296 76.6681 89.8009 77.7911 89.7682C78.4502 89.7491 79.0977 89.4597 79.7596 89.3496C79.9825 89.3127 80.2348 89.4541 80.4736 89.5142C80.4084 89.7182 80.4042 89.9902 80.2672 90.1146C79.587 90.732 78.7463 90.8706 77.916 90.8167L77.9157 90.8171Z" fill="black"/>
<path d="M136.403 87.556C136.403 87.6706 136.402 87.7853 136.403 87.8999C136.411 88.8779 136.504 89.8803 135.406 90.4295C134.259 91.0024 133.061 91.0455 131.941 90.5244C131.439 90.2906 130.89 89.6815 130.788 89.159C130.582 88.1105 130.643 87.0039 130.662 85.9223C130.665 85.7549 131.03 85.5937 131.228 85.4297C131.342 85.6038 131.543 85.7719 131.555 85.9526C131.599 86.6377 131.6 87.3273 131.582 88.0146C131.564 88.7574 131.704 89.5276 132.49 89.653C133.295 89.7816 134.167 89.6492 134.977 89.4769C135.179 89.4342 135.338 88.8036 135.37 88.4304C135.439 87.6331 135.376 86.8246 135.445 86.0276C135.463 85.8105 135.76 85.618 135.929 85.4141C136.082 85.6124 136.341 85.7969 136.369 86.0116C136.434 86.5189 136.39 87.0404 136.39 87.5563C136.394 87.5563 136.398 87.5563 136.402 87.5563L136.403 87.556Z" fill="black"/>
<path d="M143.414 90.8182C143.299 90.8182 143.184 90.8231 143.07 90.8175C141.291 90.7279 140.059 89.506 140.119 87.8918C140.179 86.2878 141.709 84.9224 143.429 85.103C144.193 85.1829 144.929 85.5842 145.656 85.8927C145.779 85.9452 145.788 86.2679 145.851 86.466C145.643 86.5132 145.413 86.6425 145.234 86.5914C144.853 86.4823 144.511 86.2367 144.131 86.1231C143.093 85.8132 141.878 86.2426 141.387 87.0531C140.742 88.1173 141.332 89.5053 142.576 89.7266C143.485 89.8885 144.398 89.8857 145.229 89.326C145.358 89.2391 145.633 89.3705 145.841 89.4011C145.783 89.6502 145.799 90.0528 145.656 90.1223C144.955 90.4621 144.211 90.7129 143.483 90.995C143.46 90.936 143.437 90.8773 143.414 90.8182H143.414Z" fill="black"/>
<path d="M115.307 85.2452C116.047 85.2799 116.789 85.3008 117.527 85.3626C117.662 85.3741 117.783 85.5534 117.911 85.6551C117.778 85.7993 117.669 86.0193 117.506 86.0731C116.979 86.2482 116.145 86.2006 115.957 86.5369C115.654 87.0744 115.768 87.8509 115.719 88.527C115.677 89.0964 115.672 89.6693 115.606 90.2353C115.591 90.359 115.392 90.5358 115.265 90.5487C115.155 90.5594 114.936 90.3826 114.921 90.2676C114.831 89.5912 114.788 88.9088 114.725 88.2285C114.673 87.665 114.781 86.9934 114.507 86.5737C114.303 86.2614 113.595 86.2986 113.128 86.1336C112.934 86.0651 112.783 85.8751 112.613 85.7403C112.825 85.5902 113.017 85.3762 113.252 85.3067C113.516 85.2285 113.819 85.2789 114.105 85.2771C114.505 85.2751 114.905 85.2765 115.305 85.2765C115.306 85.2657 115.307 85.2549 115.307 85.2441V85.2452Z" fill="black"/>
<path d="M152.316 85.3368C153.056 85.3368 153.796 85.3219 154.535 85.3528C154.646 85.3573 154.824 85.5723 154.831 85.6978C154.838 85.8187 154.669 85.9542 154.566 86.0733C154.533 86.1112 154.464 86.122 154.41 86.1362C153.875 86.2735 153.065 86.2457 152.868 86.5816C152.556 87.1118 152.645 87.8848 152.581 88.5564C152.527 89.122 152.515 89.6925 152.438 90.2543C152.423 90.3672 152.205 90.5194 152.074 90.526C151.987 90.5305 151.813 90.3127 151.807 90.1879C151.765 89.3315 151.766 88.473 151.735 87.6156C151.693 86.4169 151.687 86.4169 150.525 86.2147C150.301 86.1758 150.064 86.1741 149.857 86.0935C149.714 86.0376 149.612 85.8753 149.492 85.7607C149.635 85.614 149.773 85.3483 149.923 85.3403C150.719 85.2979 151.518 85.3205 152.315 85.3205C152.315 85.3257 152.315 85.3312 152.315 85.3364L152.316 85.3368Z" fill="black"/>
<path d="M113.469 40.2929C114.21 40.2929 114.953 40.2669 115.691 40.3138C115.848 40.3235 115.987 40.599 116.134 40.7519C116.016 40.8499 115.911 41.0041 115.778 41.0361C115.239 41.165 114.388 41.0861 114.214 41.3988C113.913 41.9387 114.018 42.7124 113.978 43.3896C113.947 43.9034 114.004 44.4277 113.922 44.9308C113.89 45.1274 113.583 45.2792 113.401 45.4512C113.261 45.2938 113.017 45.1479 112.998 44.977C112.935 44.4107 112.95 43.8353 112.94 43.2631C112.933 42.8622 112.929 42.4609 112.933 42.06C112.939 41.4391 112.674 41.0872 112.02 41.091C111.793 41.0924 111.547 41.1157 111.343 41.0396C111.177 40.9781 111.06 40.7832 110.922 40.6477C111.086 40.5229 111.241 40.3808 111.42 40.2811C111.51 40.2308 111.643 40.2513 111.757 40.2509C112.328 40.2485 112.899 40.2499 113.469 40.2499C113.469 40.2641 113.469 40.2787 113.469 40.2929H113.469Z" fill="black"/>
<path d="M159.198 87.86C159.159 88.6598 159.133 89.4606 159.068 90.2579C159.058 90.3788 158.873 90.5616 158.754 90.5755C158.633 90.5894 158.416 90.4553 158.375 90.3389C158.263 90.0217 158.169 89.6805 158.163 89.347C158.142 88.2578 158.138 87.1669 158.189 86.0794C158.199 85.8529 158.47 85.6389 158.621 85.4189C158.8 85.6587 159.096 85.8817 159.132 86.1416C159.211 86.7041 159.156 87.2853 159.156 87.8589C159.17 87.8593 159.184 87.86 159.198 87.8603L159.198 87.86Z" fill="black"/>
<path d="M123.497 43.0052C123.497 43.6291 123.54 44.258 123.472 44.8743C123.45 45.0703 123.13 45.2329 122.946 45.4104C122.813 45.2562 122.568 45.1043 122.565 44.9469C122.535 43.5861 122.536 42.2235 122.567 40.8626C122.571 40.7094 122.822 40.4446 122.961 40.4429C123.125 40.4408 123.42 40.6538 123.437 40.7997C123.522 41.5296 123.535 42.2679 123.574 43.0034C123.548 43.0041 123.523 43.0045 123.497 43.0052Z" fill="black"/>
<path d="M30.62 54.8556C30.6455 54.8066 30.6711 54.758 30.6966 54.709C30.6583 54.7448 30.6203 54.7809 30.582 54.8167L30.6196 54.8553L30.62 54.8556Z" fill="black"/>
</g>
<defs>
<clipPath id="clip0_2561_1805">
<rect width="160" height="51" fill="white" transform="translate(19 40)"/>
</clipPath>
</defs>
</svg>
