<svg width="34" height="34" viewBox="0 0 34 34" fill="none" xmlns="http://www.w3.org/2000/svg">
<path d="M17.1019 13.488C14.2645 13.5572 11.3925 13.6956 8.55512 13.9378C8.55512 13.834 8.58972 13.6956 8.62432 13.5572C9.10876 11.5503 9.83541 9.68173 10.9081 7.91701C10.9773 7.8132 11.0465 7.744 11.1157 7.67479C11.1849 7.60559 11.2887 7.57098 11.3925 7.53638C11.8769 7.32876 13.0188 6.98274 15.614 6.77513C15.7178 6.01388 15.9254 5.28722 16.2022 4.59518C15.0258 4.66438 13.8493 4.76819 12.6728 4.9412C11.4271 5.14882 10.3198 5.56404 9.55859 6.67132C8.45131 8.26303 7.62086 9.99315 7.10182 11.8617C6.99802 12.2769 6.89421 12.6921 6.72119 13.2458C6.58279 13.0036 6.44438 12.8305 6.37517 12.6575C6.37517 12.6575 5.51012 11.2734 4.26443 11.2388C4.05682 11.2388 3.8146 11.2388 3.60698 11.2388C3.01874 11.2734 2.63812 11.6541 2.60352 12.2423C2.60352 12.6575 2.60352 13.0728 2.60352 13.488C2.60352 14.1108 3.01874 14.5261 3.67619 14.5261C4.29903 14.5261 4.92187 14.5261 5.57932 14.5261C5.82153 14.5261 6.09836 14.5261 6.34057 14.5261C6.37517 14.5607 6.37517 14.5953 6.40978 14.6299C6.34057 14.6645 6.23676 14.6991 6.16756 14.7683C4.57585 16.2908 3.71079 18.1593 3.74539 20.3739C3.78 21.6887 3.8838 23.0382 4.02221 24.3531C4.12602 25.3566 4.36823 26.3601 4.81806 27.2943C5.02568 27.7096 5.2679 28.021 5.71773 28.0902C5.92534 28.1248 5.95994 28.2632 5.95994 28.4362C5.95994 28.9898 5.95994 29.5435 5.95994 30.0971C5.95994 30.8584 6.40977 31.3082 7.17103 31.3082C7.82847 31.3082 8.48592 31.3082 9.14336 31.3082C9.97382 31.3082 10.4236 30.8584 10.4236 30.0279C10.4236 29.6127 10.4236 29.1629 10.4236 28.713C13.4341 28.9206 16.4099 29.059 19.3857 29.059C19.4203 29.059 19.4549 29.059 19.4895 29.059V27.5365C19.4895 26.5677 19.4895 25.5988 19.4895 24.6299C19.4549 24.6299 19.4549 24.6299 19.4203 24.6299C19.4203 24.6299 19.4203 24.6299 19.3857 24.6299C19.3857 24.6299 19.3857 24.6299 19.3511 24.6299C17.794 24.6299 16.2368 24.6299 14.6797 24.6299C14.2991 24.6299 13.9877 24.5261 13.8147 24.1801C13.6417 23.7995 13.7801 23.4881 14.0223 23.2113C14.4721 22.6922 15.0604 21.931 15.7524 21.931C16.9635 21.931 18.14 21.931 19.3511 21.931C19.3857 21.931 19.4203 21.931 19.4549 21.931C19.4549 19.924 19.4549 17.8825 19.4549 15.8756C18.5206 15.2873 17.7247 14.4569 17.1019 13.488ZM9.17797 22.0694C7.86308 22.0694 6.825 20.9967 6.825 19.7164C6.825 18.4015 7.89768 17.3635 9.17797 17.3635C10.4929 17.3635 11.5309 18.4361 11.5309 19.7164C11.5309 20.9967 10.4583 22.0694 9.17797 22.0694ZM30.7352 11.8271C30.0778 12.8651 29.1781 13.661 28.0709 14.2146C27.8632 14.3184 27.7594 14.4569 27.7594 14.6991C27.7594 19.751 27.7594 24.7684 27.7594 29.8203C27.7594 31.3082 26.7906 32.4501 25.3719 32.6577C23.7802 32.8999 22.2577 31.6888 22.1885 30.0625C22.1885 29.9241 22.1885 29.7857 22.1885 29.6819C22.1885 24.6992 22.1885 19.6818 22.1885 14.6991C22.1885 14.4569 22.1193 14.353 21.9116 14.2492C18.0362 12.3115 16.9635 7.29416 19.6625 3.93773C20.2853 3.14188 21.0812 2.55364 21.9808 2.10381C22.05 2.06921 22.0846 2.0692 22.2577 2C22.2231 2.13841 22.1885 2.24222 22.1885 2.34602C22.1885 4.14535 22.1885 5.94467 22.1885 7.70939C22.1885 7.95161 22.2577 8.09002 22.4307 8.22843C23.2265 8.85127 24.0224 9.47411 24.7836 10.097C24.922 10.2008 25.0258 10.2354 25.1643 10.097C25.9601 9.43951 26.7906 8.81667 27.5864 8.15922C27.7248 8.05541 27.794 7.91701 27.794 7.74399C27.794 5.94467 27.794 4.11075 27.794 2.31142C27.794 2.20762 27.7594 2.13841 27.7594 2.0346C27.794 2.0346 27.794 2 27.8286 2C28.0709 2.13841 28.3477 2.27682 28.5899 2.41523C31.8425 4.42216 32.7768 8.60905 30.7352 11.8271Z" fill="#64D71E"/>
</svg>
