<svg width="34" height="34" viewBox="0 0 34 34" fill="none" xmlns="http://www.w3.org/2000/svg">
<path d="M28 10.5C28 12.0456 27.6128 13.3802 27.2381 14.6708C26.8758 15.9203 26.5333 17.1011 26.5333 18.4444C26.5333 25.0326 24.3267 30 21.4 30C18.8839 30 18.6632 26.958 18.4681 24.2735C18.2826 21.706 18.0685 19.8889 17 19.8889C15.9315 19.8889 15.7174 21.706 15.5319 24.2735C15.3368 26.958 15.1161 30 12.6 30C9.67327 30 7.46667 25.0326 7.46667 18.4444C7.46667 17.1011 7.1242 15.9203 6.76193 14.6708C6.3872 13.3802 6 12.0456 6 10.5C6 7.80106 7.82013 4 11.8667 4C13.9948 4 15.3962 4.68972 16.3224 5.14617C16.5813 5.27328 16.9032 5.43217 17.0117 5.44517C17.0961 5.43217 17.418 5.274 17.6769 5.14617C18.6045 4.68972 20.0052 4 22.1333 4C26.1799 4 28 7.80106 28 10.5Z" fill="#01B8C7"/>
</svg>
