<svg width="34" height="34" viewBox="0 0 34 34" fill="none" xmlns="http://www.w3.org/2000/svg">
<path d="M17 5C7.08 5 1 17 1 17C1 17 7.08 29 17 29C26.92 29 33 17 33 17C33 17 26.92 5 17 5ZM17 25.5479C12.4133 25.5479 8.68 21.7123 8.68 17C8.68 12.2877 12.4133 8.45205 17 8.45205C21.5867 8.45205 25.32 12.2877 25.32 17C25.32 21.7123 21.5867 25.5479 17 25.5479ZM21.96 17C21.96 19.7945 19.72 22.0959 17 22.0959C14.28 22.0959 12.04 19.7945 12.04 17C12.04 14.2055 14.28 11.9041 17 11.9041C19.72 11.9041 21.96 14.2055 21.96 17Z" fill="#01B8C7"/>
</svg>
