<svg width="34" height="34" viewBox="0 0 34 34" fill="none" xmlns="http://www.w3.org/2000/svg">
<g clip-path="url(#clip0_392_374)">
<path d="M26.1335 10.9349H26.1267C23.5759 10.9349 21.5 8.87258 21.5 6.33538C21.5 3.79817 23.5759 1.73584 26.1335 1.73584C28.6842 1.73584 30.7601 3.79817 30.7601 6.33538C30.7601 8.8658 28.6842 10.9281 26.1335 10.9349Z" fill="#FD1774"/>
<path d="M17.0358 21.3279C19.4916 21.3279 21.8049 23.1663 23.0667 26.1309C23.6976 27.6166 23.3042 29.333 22.0898 30.3981C20.9162 31.4292 19.4712 32.0669 17.9177 32.2433L17.8363 32.2501C17.5717 32.2569 17.3071 32.2637 17.0425 32.2637C16.778 32.2637 16.5134 32.2569 16.2488 32.2501L16.1674 32.2433C14.6071 32.0669 13.1621 31.4292 11.9953 30.3981C10.7809 29.333 10.3875 27.6166 11.0184 26.1309C12.2666 23.1663 14.58 21.3279 17.0358 21.3279Z" fill="#FD1774"/>
<path d="M17.0349 20.1882C15.1896 20.1882 13.6836 18.6958 13.6836 16.8573C13.6836 15.0188 15.1829 13.5264 17.0349 13.5264C18.8801 13.5264 20.3862 15.0188 20.3862 16.8573C20.3862 18.6958 18.8801 20.1882 17.0349 20.1882Z" fill="#FD1774"/>
<path d="M7.95169 10.9349H7.93813C5.94364 10.9349 4.32227 9.32033 4.32227 7.33941C4.32227 5.35848 5.94364 3.7439 7.94491 3.7439C9.9394 3.7439 11.5676 5.35848 11.5676 7.33941C11.5608 9.31354 9.94618 10.9281 7.95169 10.9349Z" fill="#FD1774"/>
<path d="M0.115948 19.4285C0.366955 16.7285 1.85265 14.4016 4.18633 13.0516C5.37353 12.3596 6.63535 12.0136 7.93109 12.0068H7.95144C9.55246 12.0068 11.1535 12.5699 12.5781 13.635L12.9987 13.9471L12.7341 14.4016C12.3 15.1478 12.0693 16.0026 12.0693 16.8642C12.0693 18.0378 12.4967 19.1775 13.2701 20.073L13.7043 20.575L13.148 20.9413C11.608 21.9657 10.353 23.5396 9.51854 25.5137C9.49819 25.568 9.47784 25.6155 9.45749 25.6698C8.87406 27.169 9.07758 28.865 9.94593 30.2218L10.3326 30.8256L8.59592 30.0929C6.56073 29.2314 4.68835 28.0713 3.01949 26.6399C0.916457 24.8218 -0.148627 22.1964 0.115948 19.4285Z" fill="#FD1774"/>
<path d="M24.6276 25.663C24.6073 25.6087 24.5869 25.5612 24.5666 25.507C23.7321 23.5396 22.4771 21.9589 20.9371 20.9346L20.3809 20.5682L20.815 20.0662C21.5884 19.1707 22.0158 18.031 22.0158 16.8574C22.0158 15.9958 21.7851 15.141 21.351 14.3948L21.0864 13.9403L21.507 13.6282C22.9316 12.5699 24.5259 12.0068 26.1269 12.0068H26.1405C27.4362 12.0068 28.698 12.3596 29.892 13.0516C32.2257 14.4016 33.7114 16.7285 33.9624 19.4285C34.2202 22.1964 33.1619 24.8286 31.0521 26.6399C29.39 28.0713 27.5108 29.2314 25.4756 30.0929L23.5625 30.9138L23.9899 30.3168C24.9668 28.9736 25.2314 27.2165 24.6276 25.663Z" fill="#FD1774"/>
</g>
<defs>
<clipPath id="clip0_392_374">
<rect width="34" height="34" fill="white"/>
</clipPath>
</defs>
</svg>
