<svg width="34" height="34" viewBox="0 0 34 34" fill="none" xmlns="http://www.w3.org/2000/svg">
<path d="M29.9554 23.7529C28.9438 20.0845 24.8284 20.5405 24.7837 20.5487C24.7634 20.5487 24.739 20.5569 24.7187 20.5692C23.0774 21.4031 21.6758 21.6044 20.4326 21.1772C18.8807 20.6473 17.601 19.1766 16.2806 16.4038C16.114 16.0505 15.915 15.6972 15.6956 15.348L11.8971 9.297C9.817 5.97777 7.38349 4.05935 7.35912 4.03881C7.2738 3.9772 7.14786 3.98952 7.08286 4.07168C4.86061 6.84455 3.02025 9.78995 4.58029 12.5751C4.71029 12.8052 4.85655 13.0763 4.99061 13.3803C4.99468 13.3885 4.99468 13.3926 4.99874 13.4008C5.09624 13.6103 5.18156 13.8363 5.25468 14.0663C6.30284 17.4307 6.2419 23.3544 6.18908 29.085L6.18096 29.7875C6.18096 29.845 6.20127 29.8943 6.2419 29.9312C6.27846 29.9682 6.33128 29.9929 6.38003 29.9929H7.72069C7.7735 29.9929 7.82632 29.9682 7.86288 29.9271C7.89944 29.8902 7.91976 29.8368 7.91976 29.7834C7.72069 23.6461 7.69225 17.8785 9.48386 14.8427C10.2476 15.3686 13.3555 17.6279 14.0177 19.8914C14.4606 20.9348 14.8465 22.0604 15.2121 23.1819C15.2162 23.1942 15.2203 23.2065 15.2243 23.2189C15.3543 23.6173 15.4803 24.0158 15.6062 24.4102C16.6137 27.5897 17.3978 30.1038 18.7304 29.9888C22.212 30.0832 25.2671 29.5821 27.8184 28.4894C28.3466 28.2634 28.765 27.8444 28.9925 27.3186C29.3622 26.4641 29.7482 25.203 29.9472 24.5293C29.9716 24.443 29.9879 24.3609 29.9919 24.2705C30.0001 24.2499 30.0001 24.2253 29.996 24.2048V24.1842C30.0082 24.0404 29.9919 23.8926 29.9554 23.7529Z" fill="#FFB800"/>
</svg>
