<svg width="34" height="34" viewBox="0 0 34 34" fill="none" xmlns="http://www.w3.org/2000/svg">
<path d="M23.0204 4.44069H22.9869C20.8001 4.44536 18.6815 5.21143 16.9875 6.61008C15.0771 4.91524 13.2673 4.00003 11.5915 4.00003C10.4533 3.99695 9.32621 4.22657 8.27797 4.6751C7.22973 5.12362 6.28194 5.78179 5.49154 6.61008C4.35372 7.82739 3.56531 9.33521 3.21101 10.9716C2.85671 12.6079 2.9499 14.311 3.48058 15.8978C3.48058 15.8978 3.48058 15.9656 3.51409 15.9656H7.77063L9.78159 12.7793C9.87532 12.6219 10.0082 12.4922 10.167 12.403C10.3258 12.3138 10.5049 12.2682 10.6865 12.2708C10.856 12.2824 11.0204 12.3346 11.1661 12.423C11.3117 12.5114 11.4346 12.6335 11.5244 12.7793L14.3733 18.3045L17.4232 13.22C17.5029 13.0898 17.6106 12.9796 17.7383 12.8974C17.8659 12.8152 18.0103 12.7633 18.1606 12.7454C18.3112 12.7302 18.4632 12.7465 18.6074 12.7931C18.7515 12.8398 18.8846 12.9158 18.9985 13.0166L21.7803 15.7283C21.9691 15.9139 22.0784 16.167 22.0846 16.4332C22.0909 16.6994 21.9937 16.9575 21.8138 17.152C21.7224 17.2516 21.6122 17.3317 21.4896 17.3874C21.367 17.4432 21.2347 17.4736 21.1003 17.4767C20.966 17.4799 20.8324 17.4558 20.7074 17.4058C20.5824 17.3559 20.4686 17.2811 20.3727 17.1859L18.4958 15.3555L15.1442 20.8806C15.0613 21.0327 14.9401 21.1598 14.793 21.2491C14.6458 21.3384 14.4779 21.3867 14.3063 21.3891H14.2727C14.0911 21.3758 13.9157 21.3159 13.7633 21.2151C13.6108 21.1143 13.4862 20.9758 13.4013 20.8128L10.5189 15.2538L9.14478 17.4571C9.0567 17.6074 8.93503 17.7347 8.78953 17.8289C8.64402 17.9231 8.47872 17.9815 8.30688 17.9994H4.45254C4.75418 18.3384 5.12286 18.8468 5.52505 19.2536L16.2837 29.7277C16.3761 29.8196 16.4864 29.8911 16.6075 29.9378C16.7287 29.9845 16.8581 30.0053 16.9875 29.9989C17.2528 29.995 17.5057 29.8854 17.6914 29.6938L28.4835 19.1519C30.0966 17.4858 31 15.2467 31 12.9149C31 10.583 30.0966 8.34402 28.4835 6.67788C27.7692 5.95153 26.917 5.37889 25.9781 4.99441C25.0393 4.60993 24.0332 4.42158 23.0204 4.44069Z" fill="#8800FF"/>
</svg>
