<svg width="34" height="34" viewBox="0 0 34 34" fill="none" xmlns="http://www.w3.org/2000/svg">
<g clip-path="url(#clip0_392_358)">
<path fill-rule="evenodd" clip-rule="evenodd" d="M19.6053 0.0320936C26.6073 0.512231 32.329 6.07382 32.9291 13.0358C33.3693 17.5171 31.7288 21.6383 28.848 24.5191C27.3675 25.9995 26.6073 28.0401 26.6073 30.1207V32.8015C26.6073 33.6817 25.8871 34.4019 25.0069 34.4019H13.8037C12.9234 34.4019 12.2032 33.6817 12.2032 32.8015V30.4008C12.2032 29.5205 11.483 28.8003 10.6028 28.8003H7.00172C6.12147 28.8003 5.40126 28.0801 5.40126 27.1999V21.3982C5.40126 20.798 5.04116 20.1979 4.481 19.9578L1 18.3974L3.72078 13.556C4.12089 12.8358 4.40097 12.0755 4.56102 11.2753C6.04144 4.51338 12.2832 -0.448044 19.6053 0.0320936ZM24.175 16.6282C24.1573 16.6511 24.1396 16.6739 24.1219 16.6967C23.7122 17.2063 23.1561 17.8008 22.5414 18.367C21.5756 19.273 20.4634 20.1507 19.3219 20.9151C19.2341 20.9717 19.1171 21 19 21C18.8829 21 18.7659 20.9717 18.6781 20.9151C17.5073 20.1507 16.4244 19.3013 15.4586 18.367C14.7275 17.6861 14.2469 17.1262 13.9473 16.7772C13.9231 16.749 13.9 16.7221 13.8781 16.6967C13.1757 15.819 12.3854 14.7998 12.0927 13.3559C11.9171 12.4216 12.0342 11.7988 12.0927 11.4874C12.0989 11.4675 12.1056 11.4449 12.1131 11.4198C12.2123 11.0864 12.4428 10.3113 13.2049 9.73205C13.9366 9.13751 14.7269 9.05258 15.0196 9.02427C16.0439 8.91102 17.0976 9.19414 18.0342 9.87361C18.4439 10.185 18.7659 10.4965 19 10.8362C19.2341 10.5248 19.5561 10.185 19.9658 9.87361C20.9024 9.19414 21.9268 8.91102 22.9804 9.02427C23.2731 9.05258 24.0634 9.13751 24.7951 9.73205C25.5633 10.3424 25.7914 11.1021 25.8893 11.428C25.8958 11.4498 25.9018 11.4696 25.9073 11.4874C25.9658 11.7988 26.0829 12.45 25.9073 13.3559C25.6219 14.7635 24.8638 15.7406 24.175 16.6282Z" fill="#8800FF"/>
</g>
<defs>
<clipPath id="clip0_392_358">
<rect width="34" height="34" fill="white"/>
</clipPath>
</defs>
</svg>
